# xmcd CD database file
# Copyright (C) 1993-1998 Ti Kan
#
# Track frame offsets:
#	182
#	11242
#	25685
#	37317
#	54922
#	73010
#	85702
#	99820
#	115375
#	125422
#	137077
#	152905
#	164507
#	178502
#
# Disc length: 2607 seconds
#
# Revision: 1
# Processed by: cddbd v1.4b41PL1 Copyright (c) Steve Scherf et al.
# Submitted via: CDValet v3.01 - Copyright (c) 1997 Greg Leichner
#
DISCID=b70a2d0e
DTITLE=Various Artist - Acervo Especial - Samba 1
DYEAR=1900
DGENRE=
TTITLE0=Casa De Bamba
TTITLE1=Vou Festejar
TTITLE2=Eu Canto Samba
TTITLE3=Mangueira Estação Primeira
TTITLE4=O Teu Chamego
TTITLE5=Boteco Do Arlindo
TTITLE6=Quantas Lagrimas
TTITLE7=Fiquei Amarrado Na Sua Blusinha
TTITLE8=Meu Guarda-Chuva
TTITLE9=Estação Derradeira
TTITLE10=Esperanças Perdidas
TTITLE11=Pisa Nesse Chão Com Força
TTITLE12=O Mestre-Sala Dos Mares 
TTITLE13=Bicho Feroz
EXTD=
EXTT0=
EXTT1=
EXTT2=
EXTT3=
EXTT4=
EXTT5=
EXTT6=
EXTT7=
EXTT8=
EXTT9=
EXTT10=
EXTT11=
EXTT12=
EXTT13=
PLAYORDER=
